<mxfile host="app.diagrams.net" modified="2022-01-25T11:28:43.751Z" agent="5.0 (Windows NT 10.0; Win64; x64) AppleWebKit/537.36 (KHTML, like Gecko) Chrome/89.0.4389.90 Safari/537.36 Edg/89.0.774.63" etag="ifUeEQvy3Bai7SmzDYqB" version="15.7.3" type="github">
  <diagram id="LZaC-wfwe0cI1teCQuNv" name="Page-1">
    <mxGraphModel dx="1277" dy="462" grid="0" gridSize="10" guides="1" tooltips="1" connect="1" arrows="1" fold="1" page="0" pageScale="1" pageWidth="827" pageHeight="1169" math="0" shadow="0">
      <root>
        <mxCell id="0" />
        <mxCell id="1" parent="0" />
        <mxCell id="OC7pee70IAStsnAfmf-x-3" value="" style="edgeStyle=orthogonalEdgeStyle;rounded=0;orthogonalLoop=1;jettySize=auto;html=1;" edge="1" parent="1" source="OC7pee70IAStsnAfmf-x-1" target="OC7pee70IAStsnAfmf-x-2">
          <mxGeometry relative="1" as="geometry" />
        </mxCell>
        <mxCell id="OC7pee70IAStsnAfmf-x-4" value="Unexpected msg" style="edgeStyle=orthogonalEdgeStyle;rounded=0;orthogonalLoop=1;jettySize=auto;html=1;exitX=0.75;exitY=1;exitDx=0;exitDy=0;" edge="1" parent="1" source="OC7pee70IAStsnAfmf-x-1">
          <mxGeometry relative="1" as="geometry">
            <mxPoint x="240.64697265625" y="156.70169067382812" as="targetPoint" />
            <Array as="points">
              <mxPoint x="269" y="237" />
              <mxPoint x="373" y="237" />
              <mxPoint x="373" y="137" />
              <mxPoint x="241" y="137" />
            </Array>
          </mxGeometry>
        </mxCell>
        <mxCell id="OC7pee70IAStsnAfmf-x-1" value="Unrecognized State" style="rounded=1;whiteSpace=wrap;html=1;" vertex="1" parent="1">
          <mxGeometry x="179" y="157" width="120" height="60" as="geometry" />
        </mxCell>
        <mxCell id="OC7pee70IAStsnAfmf-x-5" value="processMessage()" style="edgeStyle=orthogonalEdgeStyle;rounded=0;orthogonalLoop=1;jettySize=auto;html=1;exitX=1;exitY=0.75;exitDx=0;exitDy=0;entryX=0.862;entryY=-0.007;entryDx=0;entryDy=0;entryPerimeter=0;" edge="1" parent="1" source="OC7pee70IAStsnAfmf-x-2" target="OC7pee70IAStsnAfmf-x-2">
          <mxGeometry relative="1" as="geometry">
            <mxPoint x="284" y="291" as="targetPoint" />
            <Array as="points">
              <mxPoint x="299" y="364" />
              <mxPoint x="632" y="364" />
              <mxPoint x="632" y="277" />
              <mxPoint x="282" y="277" />
            </Array>
          </mxGeometry>
        </mxCell>
        <mxCell id="OC7pee70IAStsnAfmf-x-8" value="prepareForBackup()" style="edgeStyle=orthogonalEdgeStyle;rounded=0;orthogonalLoop=1;jettySize=auto;html=1;exitX=0.75;exitY=1;exitDx=0;exitDy=0;" edge="1" parent="1" source="OC7pee70IAStsnAfmf-x-2" target="OC7pee70IAStsnAfmf-x-7">
          <mxGeometry relative="1" as="geometry">
            <Array as="points">
              <mxPoint x="269" y="391" />
              <mxPoint x="418" y="391" />
            </Array>
          </mxGeometry>
        </mxCell>
        <mxCell id="OC7pee70IAStsnAfmf-x-11" value="prepareForRestore()" style="edgeStyle=orthogonalEdgeStyle;rounded=0;orthogonalLoop=1;jettySize=auto;html=1;exitX=0.25;exitY=1;exitDx=0;exitDy=0;entryX=0.5;entryY=0;entryDx=0;entryDy=0;" edge="1" parent="1" source="OC7pee70IAStsnAfmf-x-2" target="OC7pee70IAStsnAfmf-x-9">
          <mxGeometry relative="1" as="geometry">
            <Array as="points">
              <mxPoint x="209" y="397" />
              <mxPoint x="39" y="397" />
            </Array>
          </mxGeometry>
        </mxCell>
        <mxCell id="OC7pee70IAStsnAfmf-x-2" value="Recognized State" style="rounded=1;whiteSpace=wrap;html=1;" vertex="1" parent="1">
          <mxGeometry x="179" y="297" width="120" height="60" as="geometry" />
        </mxCell>
        <mxCell id="OC7pee70IAStsnAfmf-x-12" value="resetState()" style="edgeStyle=orthogonalEdgeStyle;rounded=0;orthogonalLoop=1;jettySize=auto;html=1;exitX=1;exitY=0.5;exitDx=0;exitDy=0;entryX=1;entryY=0.5;entryDx=0;entryDy=0;fillColor=#f8cecc;strokeColor=#b85450;" edge="1" parent="1" source="OC7pee70IAStsnAfmf-x-7" target="OC7pee70IAStsnAfmf-x-2">
          <mxGeometry relative="1" as="geometry">
            <Array as="points">
              <mxPoint x="478" y="467" />
              <mxPoint x="512" y="467" />
              <mxPoint x="512" y="327" />
            </Array>
          </mxGeometry>
        </mxCell>
        <mxCell id="OC7pee70IAStsnAfmf-x-14" value="executeBackup()" style="edgeStyle=orthogonalEdgeStyle;rounded=0;orthogonalLoop=1;jettySize=auto;html=1;" edge="1" parent="1" source="OC7pee70IAStsnAfmf-x-7" target="OC7pee70IAStsnAfmf-x-13">
          <mxGeometry relative="1" as="geometry" />
        </mxCell>
        <mxCell id="OC7pee70IAStsnAfmf-x-31" style="edgeStyle=orthogonalEdgeStyle;rounded=0;orthogonalLoop=1;jettySize=auto;html=1;exitX=0;exitY=0.5;exitDx=0;exitDy=0;entryX=0.75;entryY=0;entryDx=0;entryDy=0;fillColor=#f8cecc;strokeColor=#b85450;" edge="1" parent="1" source="OC7pee70IAStsnAfmf-x-7" target="OC7pee70IAStsnAfmf-x-27">
          <mxGeometry relative="1" as="geometry" />
        </mxCell>
        <mxCell id="OC7pee70IAStsnAfmf-x-7" value="PreparingBackup State" style="rounded=1;whiteSpace=wrap;html=1;" vertex="1" parent="1">
          <mxGeometry x="358" y="435" width="120" height="60" as="geometry" />
        </mxCell>
        <mxCell id="OC7pee70IAStsnAfmf-x-16" value="executeRestore()" style="edgeStyle=orthogonalEdgeStyle;rounded=0;orthogonalLoop=1;jettySize=auto;html=1;" edge="1" parent="1" source="OC7pee70IAStsnAfmf-x-9" target="OC7pee70IAStsnAfmf-x-15">
          <mxGeometry relative="1" as="geometry" />
        </mxCell>
        <mxCell id="OC7pee70IAStsnAfmf-x-30" style="edgeStyle=orthogonalEdgeStyle;rounded=0;orthogonalLoop=1;jettySize=auto;html=1;exitX=1;exitY=0.5;exitDx=0;exitDy=0;entryX=0.25;entryY=0;entryDx=0;entryDy=0;fillColor=#f8cecc;strokeColor=#b85450;" edge="1" parent="1" source="OC7pee70IAStsnAfmf-x-9" target="OC7pee70IAStsnAfmf-x-27">
          <mxGeometry relative="1" as="geometry" />
        </mxCell>
        <mxCell id="OC7pee70IAStsnAfmf-x-9" value="PreparingRestore State" style="rounded=1;whiteSpace=wrap;html=1;" vertex="1" parent="1">
          <mxGeometry x="-21" y="437" width="120" height="60" as="geometry" />
        </mxCell>
        <mxCell id="OC7pee70IAStsnAfmf-x-18" value="executeBackupPostAction()" style="edgeStyle=orthogonalEdgeStyle;rounded=0;orthogonalLoop=1;jettySize=auto;html=1;" edge="1" parent="1" source="OC7pee70IAStsnAfmf-x-13" target="OC7pee70IAStsnAfmf-x-17">
          <mxGeometry relative="1" as="geometry" />
        </mxCell>
        <mxCell id="OC7pee70IAStsnAfmf-x-32" style="edgeStyle=orthogonalEdgeStyle;rounded=0;orthogonalLoop=1;jettySize=auto;html=1;exitX=0;exitY=0.5;exitDx=0;exitDy=0;entryX=1;entryY=0.5;entryDx=0;entryDy=0;fillColor=#f8cecc;strokeColor=#b85450;" edge="1" parent="1" source="OC7pee70IAStsnAfmf-x-13" target="OC7pee70IAStsnAfmf-x-27">
          <mxGeometry relative="1" as="geometry" />
        </mxCell>
        <mxCell id="OC7pee70IAStsnAfmf-x-13" value="ExecutingBackup State" style="rounded=1;whiteSpace=wrap;html=1;" vertex="1" parent="1">
          <mxGeometry x="358" y="577" width="120" height="60" as="geometry" />
        </mxCell>
        <mxCell id="OC7pee70IAStsnAfmf-x-20" value="executeRestorePostAction()" style="edgeStyle=orthogonalEdgeStyle;rounded=0;orthogonalLoop=1;jettySize=auto;html=1;" edge="1" parent="1" source="OC7pee70IAStsnAfmf-x-15" target="OC7pee70IAStsnAfmf-x-19">
          <mxGeometry relative="1" as="geometry" />
        </mxCell>
        <mxCell id="OC7pee70IAStsnAfmf-x-28" value="cancelAction()" style="edgeStyle=orthogonalEdgeStyle;rounded=0;orthogonalLoop=1;jettySize=auto;html=1;exitX=1;exitY=0.5;exitDx=0;exitDy=0;entryX=0;entryY=0.5;entryDx=0;entryDy=0;fillColor=#f8cecc;strokeColor=#b85450;" edge="1" parent="1" source="OC7pee70IAStsnAfmf-x-15" target="OC7pee70IAStsnAfmf-x-27">
          <mxGeometry relative="1" as="geometry" />
        </mxCell>
        <mxCell id="OC7pee70IAStsnAfmf-x-15" value="ExecutingRestore State" style="rounded=1;whiteSpace=wrap;html=1;" vertex="1" parent="1">
          <mxGeometry x="-21" y="577" width="120" height="60" as="geometry" />
        </mxCell>
        <mxCell id="OC7pee70IAStsnAfmf-x-21" style="edgeStyle=orthogonalEdgeStyle;rounded=0;orthogonalLoop=1;jettySize=auto;html=1;exitX=1;exitY=0.5;exitDx=0;exitDy=0;fillColor=#f8cecc;strokeColor=#b85450;" edge="1" parent="1" source="OC7pee70IAStsnAfmf-x-17">
          <mxGeometry relative="1" as="geometry">
            <mxPoint x="512.2472795758929" y="463.7394670758929" as="targetPoint" />
          </mxGeometry>
        </mxCell>
        <mxCell id="OC7pee70IAStsnAfmf-x-33" style="edgeStyle=orthogonalEdgeStyle;rounded=0;orthogonalLoop=1;jettySize=auto;html=1;exitX=0;exitY=0.5;exitDx=0;exitDy=0;entryX=0.75;entryY=1;entryDx=0;entryDy=0;fillColor=#f8cecc;strokeColor=#b85450;" edge="1" parent="1" source="OC7pee70IAStsnAfmf-x-17" target="OC7pee70IAStsnAfmf-x-27">
          <mxGeometry relative="1" as="geometry" />
        </mxCell>
        <mxCell id="OC7pee70IAStsnAfmf-x-17" value="PostActionBackup State" style="rounded=1;whiteSpace=wrap;html=1;" vertex="1" parent="1">
          <mxGeometry x="358" y="715" width="120" height="60" as="geometry" />
        </mxCell>
        <mxCell id="OC7pee70IAStsnAfmf-x-26" value="resetState()" style="edgeStyle=orthogonalEdgeStyle;rounded=0;orthogonalLoop=1;jettySize=auto;html=1;exitX=0;exitY=0.5;exitDx=0;exitDy=0;entryX=0;entryY=0.5;entryDx=0;entryDy=0;fillColor=#f8cecc;strokeColor=#b85450;" edge="1" parent="1" source="OC7pee70IAStsnAfmf-x-19" target="OC7pee70IAStsnAfmf-x-2">
          <mxGeometry relative="1" as="geometry" />
        </mxCell>
        <mxCell id="OC7pee70IAStsnAfmf-x-29" style="edgeStyle=orthogonalEdgeStyle;rounded=0;orthogonalLoop=1;jettySize=auto;html=1;exitX=1;exitY=0.5;exitDx=0;exitDy=0;entryX=0.25;entryY=1;entryDx=0;entryDy=0;fillColor=#f8cecc;strokeColor=#b85450;" edge="1" parent="1" source="OC7pee70IAStsnAfmf-x-19" target="OC7pee70IAStsnAfmf-x-27">
          <mxGeometry relative="1" as="geometry" />
        </mxCell>
        <mxCell id="OC7pee70IAStsnAfmf-x-19" value="PostActionRestore State" style="rounded=1;whiteSpace=wrap;html=1;" vertex="1" parent="1">
          <mxGeometry x="-21" y="717" width="120" height="60" as="geometry" />
        </mxCell>
        <mxCell id="OC7pee70IAStsnAfmf-x-34" value="processMsg()" style="edgeStyle=orthogonalEdgeStyle;rounded=0;orthogonalLoop=1;jettySize=auto;html=1;exitX=0.5;exitY=0;exitDx=0;exitDy=0;" edge="1" parent="1" source="OC7pee70IAStsnAfmf-x-27" target="OC7pee70IAStsnAfmf-x-2">
          <mxGeometry relative="1" as="geometry" />
        </mxCell>
        <mxCell id="OC7pee70IAStsnAfmf-x-27" value="CancelingAction State" style="rounded=1;whiteSpace=wrap;html=1;fillColor=#f8cecc;strokeColor=#b85450;" vertex="1" parent="1">
          <mxGeometry x="179" y="577" width="120" height="60" as="geometry" />
        </mxCell>
      </root>
    </mxGraphModel>
  </diagram>
</mxfile>
